<svg xmlns="http://www.w3.org/2000/svg" width="1400" height="360.559"><path fill="none" pointer-events="none" d="M0 0h1400v360.559H0z"/><path class="st0" d="M530.789 14.187c94.09 0 170.452 76.362 170.452 170.452s-76.363 170.452-170.452 170.452S360.336 278.73 360.336 184.64 436.7 14.187 530.79 14.187z" fill="#fff"/><path class="st0" d="M1381.333 36.007c0 19.6-14.933 34.533-34.533 34.533s-35.467-14.933-35.467-34.533c0-18.667 15.867-33.6 35.467-33.6 18.667-.934 34.533 14.933 34.533 33.6zm-60.666 0c0 14.933 11.2 26.133 25.2 26.133 14.933 0 25.2-12.133 25.2-26.133 0-14.934-10.267-26.134-25.2-26.134-14 0-25.2 11.2-25.2 26.134zm20.533 16.8h-8.4V20.14c2.8 0 7.467-.933 13.067-.933 6.533 0 10.266.933 12.133 2.8 1.867 1.866 3.733 3.733 3.733 7.466 0 3.734-2.8 6.534-7.466 7.467 3.733.933 5.6 3.733 6.533 8.4.933 4.667 1.867 6.533 2.8 7.467h-10.267c-.933-.934-1.866-3.734-2.8-7.467-.933-3.733-2.8-4.667-5.6-4.667h-3.733v12.134zm0-18.667h3.733c3.734 0 6.534-1.867 6.534-4.667s-1.867-4.666-6.534-4.666h-3.733v9.333zM41.067 283.34V119.073H16.8V95.74h23.333v-11.2c0-20.533 2.8-41.067 16.8-56.933 11.2-12.134 26.134-15.867 37.334-15.867 10.266 0 17.733 1.867 23.333 4.667l-4.667 23.333c-3.733-1.867-8.4-2.8-15.866-2.8-21.467 0-26.134 23.333-26.134 47.6v11.2h34.534v23.333H70.933v165.2H41.067zM741.067 144.273c0-15.866-.934-34.533-1.867-48.533h27.067l1.866 29.867h.934c6.533-17.734 22.4-32.667 39.2-32.667h6.533v30.8h-6.533c-18.667 0-32.667 17.733-36.4 39.2-.934 4.667-.934 11.2-.934 16.8v103.6h-29.866V144.273zM922.133 47.207c0 11.2-6.533 19.6-18.666 19.6-9.334 0-16.8-7.467-16.8-19.6 0-11.2 7.466-19.6 17.733-19.6 11.2.933 17.733 8.4 17.733 19.6zM890.4 283.34V95.74h29.867v187.6H890.4zM1040.667 183.473c4.666-7.466 7.466-14.933 11.2-20.533l37.333-66.267h31.733l-49.466 79.334 54.133 108.266H1092l-41.067-88.666-10.266 17.733v70.933H1010.8v-268.8h29.867v168zM299.6 283.34h28.933l-22.4-67.2h8.4v-21.467h-15.866L255.733 69.607h-33.6l-42 125.066H165.2v21.467h7.467l-22.4 67.2h28l22.4-67.2h75.6l23.333 67.2zm-71.867-149.333C231.467 120.94 235.2 107.873 238 95.74h.933c2.8 12.133 6.534 25.2 11.2 39.2l20.534 61.6h-64.4l21.466-62.533zM1321.6 283.34h28.933l-22.4-67.2h8.4v-21.467H1321.6l-42.933-125.066h-33.6l-42 125.066h-14.934v21.467h7.467l-22.4 67.2h28l22.4-67.2h75.6l22.4 67.2zm-71.867-149.333c3.734-13.067 7.467-26.134 11.2-38.267h.934c2.8 12.133 6.533 25.2 11.2 39.2l20.533 61.6h-64.4l20.533-62.533z"/><path class="st1" d="M531.067 10.807c-95.2 0-172.667 77.466-172.667 172.666 0 63.467 33.6 118.534 84.933 148.4V150.807c0-24.267-.933-43.867-1.866-61.6h30.8l1.866 31.733h.934c14-23.333 36.4-36.4 66.266-36.4 45.734 0 79.334 38.267 79.334 95.2 0 67.2-41.067 100.8-84.934 100.8-25.2 0-46.666-11.2-57.866-29.867H476v95.2c16.8 5.6 35.467 9.334 55.067 9.334 95.2 0 172.666-77.467 172.666-172.667 0-94.267-77.466-171.733-172.666-171.733z" fill="#4b71fc"/><path class="st1" d="M529.2 255.34c36.4 0 56.933-29.867 56.933-72.8 0-37.333-19.6-70-56-70-23.333 0-44.8 16.8-51.333 42-.933 4.667-1.867 9.333-1.867 14v31.733c0 4.667.934 9.334 1.867 14 4.667 25.2 25.2 41.067 50.4 41.067z" fill="#4b71fc"/></svg>